{
    "asset" : {
        "generator" : "Khronos glTF Blender I/O v1.7.33",
        "version" : "2.0"
    },
    "scene" : 0,
    "scenes" : [
        {
            "name" : "Scene",
            "nodes" : [
                0,
                1,
                2,
                3,
                4,
                5,
                6
            ]
        }
    ],
    "nodes" : [
        {
            "mesh" : 0,
            "name" : "head"
        },
        {
            "mesh" : 1,
            "name" : "antenna-1",
            "scale" : [
                0.009201043285429478,
                0.1728942096233368,
                0.009201043285429478
            ],
            "translation" : [
                -0.0686853677034378,
                1.4067782163619995,
                0.27466580271720886
            ]
        },
        {
            "mesh" : 2,
            "name" : "antenna-2",
            "scale" : [
                0.009201043285429478,
                0.1728942096233368,
                0.009201043285429478
            ],
            "translation" : [
                0.01984245330095291,
                1.403725504875183,
                0.18937890231609344
            ]
        },
        {
            "mesh" : 3,
            "name" : "eyeball",
            "rotation" : [
                0,
                0.7071068286895752,
                0,
                0.7071068286895752
            ],
            "scale" : [
                0.5317648649215698,
                0.5317648649215698,
                0.5317648649215698
            ],
            "translation" : [
                0.022437693551182747,
                1.0227727890014648,
                -0.6457118391990662
            ]
        },
        {
            "mesh" : 4,
            "name" : "eye-lid",
            "rotation" : [
                0,
                0.7071068286895752,
                0,
                0.7071068286895752
            ],
            "scale" : [
                0.5282878875732422,
                0.5282878875732422,
                0.5282878875732422
            ],
            "translation" : [
                0.022417845204472542,
                1.0345834493637085,
                -0.645551323890686
            ]
        },
        {
            "mesh" : 5,
            "name" : "captor",
            "scale" : [
                0.06682945787906647,
                0.06682946532964706,
                0.06682946532964706
            ],
            "translation" : [
                -0.21524053812026978,
                1.006538987159729,
                -0.38709139823913574
            ]
        },
        {
            "mesh" : 6,
            "name" : "body-sphere"
        }
    ],
    "animations" : [
        {
            "channels" : [
                {
                    "sampler" : 0,
                    "target" : {
                        "node" : 5,
                        "path" : "rotation"
                    }
                }
            ],
            "name" : "Circle.001Action",
            "samplers" : [
                {
                    "input" : 28,
                    "interpolation" : "STEP",
                    "output" : 29
                }
            ]
        }
    ],
    "materials" : [
        {
            "doubleSided" : true,
            "name" : "Material",
            "pbrMetallicRoughness" : {
                "baseColorTexture" : {
                    "index" : 0
                },
                "metallicFactor" : 0.4000000059604645,
                "roughnessFactor" : 0.5
            }
        },
        {
            "doubleSided" : true,
            "name" : "Material.005",
            "pbrMetallicRoughness" : {
                "baseColorFactor" : [
                    0.24227285385131836,
                    0.24227285385131836,
                    0.24227285385131836,
                    1
                ],
                "metallicFactor" : 0.6000000238418579,
                "roughnessFactor" : 0.5
            }
        },
        {
            "doubleSided" : true,
            "name" : "Material.001",
            "pbrMetallicRoughness" : {
                "baseColorFactor" : [
                    0.0376003161072731,
                    0.0376003161072731,
                    0.0376003161072731,
                    1
                ],
                "metallicFactor" : 0,
                "roughnessFactor" : 0
            }
        },
        {
            "doubleSided" : true,
            "name" : "Material.003",
            "pbrMetallicRoughness" : {
                "baseColorFactor" : [
                    0.05810960754752159,
                    0.05810960754752159,
                    0.05810960754752159,
                    1
                ],
                "metallicFactor" : 0.6000000238418579,
                "roughnessFactor" : 0.5
            }
        },
        {
            "doubleSided" : true,
            "name" : "Body",
            "pbrMetallicRoughness" : {
                "baseColorTexture" : {
                    "index" : 1
                },
                "metallicFactor" : 0.4000000059604645,
                "roughnessFactor" : 0.4000000059604645
            }
        }
    ],
    "meshes" : [
        {
            "name" : "Sphere",
            "primitives" : [
                {
                    "attributes" : {
                        "POSITION" : 0,
                        "NORMAL" : 1,
                        "TEXCOORD_0" : 2
                    },
                    "indices" : 3,
                    "material" : 0
                }
            ]
        },
        {
            "name" : "Cylinder.001",
            "primitives" : [
                {
                    "attributes" : {
                        "POSITION" : 4,
                        "NORMAL" : 5,
                        "TEXCOORD_0" : 6
                    },
                    "indices" : 7,
                    "material" : 1
                }
            ]
        },
        {
            "name" : "Cylinder.002",
            "primitives" : [
                {
                    "attributes" : {
                        "POSITION" : 8,
                        "NORMAL" : 9,
                        "TEXCOORD_0" : 10
                    },
                    "indices" : 11,
                    "material" : 1
                }
            ]
        },
        {
            "name" : "Sphere.001",
            "primitives" : [
                {
                    "attributes" : {
                        "POSITION" : 12,
                        "NORMAL" : 13,
                        "TEXCOORD_0" : 14
                    },
                    "indices" : 15,
                    "material" : 2
                }
            ]
        },
        {
            "name" : "Circle",
            "primitives" : [
                {
                    "attributes" : {
                        "POSITION" : 16,
                        "NORMAL" : 17,
                        "TEXCOORD_0" : 18
                    },
                    "indices" : 19,
                    "material" : 1
                }
            ]
        },
        {
            "name" : "Circle.001",
            "primitives" : [
                {
                    "attributes" : {
                        "POSITION" : 20,
                        "NORMAL" : 21,
                        "TEXCOORD_0" : 22
                    },
                    "indices" : 23,
                    "material" : 3
                }
            ]
        },
        {
            "name" : "Cube",
            "primitives" : [
                {
                    "attributes" : {
                        "POSITION" : 24,
                        "NORMAL" : 25,
                        "TEXCOORD_0" : 26
                    },
                    "indices" : 27,
                    "material" : 4
                }
            ]
        }
    ],
    "textures" : [
        {
            "sampler" : 0,
            "source" : 0
        },
        {
            "sampler" : 0,
            "source" : 1
        }
    ],
    "images" : [
        {
            "mimeType" : "image/png",
            "name" : "bb8-head-texture",
            "uri" : "bb8-head-texture.png"
        },
        {
            "mimeType" : "image/png",
            "name" : "BB8-Body-Texture",
            "uri" : "BB8-Body-Texture.png"
        }
    ],
    "accessors" : [
        {
            "bufferView" : 0,
            "componentType" : 5126,
            "count" : 445,
            "max" : [
                0.4526291787624359,
                1.3231247663497925,
                0.4526289999485016
            ],
            "min" : [
                -0.4526287913322449,
                0.7399318218231201,
                -0.4526286721229553
            ],
            "type" : "VEC3"
        },
        {
            "bufferView" : 1,
            "componentType" : 5126,
            "count" : 445,
            "type" : "VEC3"
        },
        {
            "bufferView" : 2,
            "componentType" : 5126,
            "count" : 445,
            "type" : "VEC2"
        },
        {
            "bufferView" : 3,
            "componentType" : 5123,
            "count" : 2484,
            "type" : "SCALAR"
        },
        {
            "bufferView" : 4,
            "componentType" : 5126,
            "count" : 704,
            "max" : [
                1.478616714477539,
                1.2942712306976318,
                1.478616714477539
            ],
            "min" : [
                -1.4786216020584106,
                -1.4884175062179565,
                -1.478616714477539
            ],
            "type" : "VEC3"
        },
        {
            "bufferView" : 5,
            "componentType" : 5126,
            "count" : 704,
            "type" : "VEC3"
        },
        {
            "bufferView" : 6,
            "componentType" : 5126,
            "count" : 704,
            "type" : "VEC2"
        },
        {
            "bufferView" : 7,
            "componentType" : 5123,
            "count" : 1140,
            "type" : "SCALAR"
        },
        {
            "bufferView" : 8,
            "componentType" : 5126,
            "count" : 590,
            "max" : [
                1.478616714477539,
                0.256027489900589,
                1.478616714477539
            ],
            "min" : [
                -1.4786216020584106,
                -0.7766748666763306,
                -1.478616714477539
            ],
            "type" : "VEC3"
        },
        {
            "bufferView" : 9,
            "componentType" : 5126,
            "count" : 590,
            "type" : "VEC3"
        },
        {
            "bufferView" : 10,
            "componentType" : 5126,
            "count" : 590,
            "type" : "VEC2"
        },
        {
            "bufferView" : 11,
            "componentType" : 5123,
            "count" : 948,
            "type" : "SCALAR"
        },
        {
            "bufferView" : 12,
            "componentType" : 5126,
            "count" : 4575,
            "max" : [
                -0.32673215866088867,
                0.37427011132240295,
                0.23296977579593658
            ],
            "min" : [
                -0.6844767928123474,
                -0.05402238667011261,
                -0.23296955227851868
            ],
            "type" : "VEC3"
        },
        {
            "bufferView" : 13,
            "componentType" : 5126,
            "count" : 4575,
            "type" : "VEC3"
        },
        {
            "bufferView" : 14,
            "componentType" : 5126,
            "count" : 4575,
            "type" : "VEC2"
        },
        {
            "bufferView" : 15,
            "componentType" : 5123,
            "count" : 23808,
            "type" : "SCALAR"
        },
        {
            "bufferView" : 16,
            "componentType" : 5126,
            "count" : 772,
            "max" : [
                -0.3420692980289459,
                0.40783563256263733,
                0.2544710338115692
            ],
            "min" : [
                -0.6760277152061462,
                -0.0774274691939354,
                -0.2544708549976349
            ],
            "type" : "VEC3"
        },
        {
            "bufferView" : 17,
            "componentType" : 5126,
            "count" : 772,
            "type" : "VEC3"
        },
        {
            "bufferView" : 18,
            "componentType" : 5126,
            "count" : 772,
            "type" : "VEC2"
        },
        {
            "bufferView" : 19,
            "componentType" : 5123,
            "count" : 1644,
            "type" : "SCALAR"
        },
        {
            "bufferView" : 20,
            "componentType" : 5126,
            "count" : 3206,
            "max" : [
                1,
                0.38529348373413086,
                1
            ],
            "min" : [
                -1,
                -0.6059170961380005,
                -1
            ],
            "type" : "VEC3"
        },
        {
            "bufferView" : 21,
            "componentType" : 5126,
            "count" : 3206,
            "type" : "VEC3"
        },
        {
            "bufferView" : 22,
            "componentType" : 5126,
            "count" : 3206,
            "type" : "VEC2"
        },
        {
            "bufferView" : 23,
            "componentType" : 5123,
            "count" : 6138,
            "type" : "SCALAR"
        },
        {
            "bufferView" : 24,
            "componentType" : 5126,
            "count" : 98304,
            "max" : [
                0.7634657621383667,
                0.7634657621383667,
                0.7634657621383667
            ],
            "min" : [
                -0.7634657621383667,
                -0.7634657621383667,
                -0.7634657621383667
            ],
            "type" : "VEC3"
        },
        {
            "bufferView" : 25,
            "componentType" : 5126,
            "count" : 98304,
            "type" : "VEC3"
        },
        {
            "bufferView" : 26,
            "componentType" : 5126,
            "count" : 98304,
            "type" : "VEC2"
        },
        {
            "bufferView" : 27,
            "componentType" : 5125,
            "count" : 147456,
            "type" : "SCALAR"
        },
        {
            "bufferView" : 28,
            "componentType" : 5126,
            "count" : 1,
            "max" : [
                1.5416666666666667
            ],
            "min" : [
                1.5416666666666667
            ],
            "type" : "SCALAR"
        },
        {
            "bufferView" : 29,
            "componentType" : 5126,
            "count" : 1,
            "type" : "VEC4"
        }
    ],
    "bufferViews" : [
        {
            "buffer" : 0,
            "byteLength" : 5340,
            "byteOffset" : 0
        },
        {
            "buffer" : 0,
            "byteLength" : 5340,
            "byteOffset" : 5340
        },
        {
            "buffer" : 0,
            "byteLength" : 3560,
            "byteOffset" : 10680
        },
        {
            "buffer" : 0,
            "byteLength" : 4968,
            "byteOffset" : 14240
        },
        {
            "buffer" : 0,
            "byteLength" : 8448,
            "byteOffset" : 19208
        },
        {
            "buffer" : 0,
            "byteLength" : 8448,
            "byteOffset" : 27656
        },
        {
            "buffer" : 0,
            "byteLength" : 5632,
            "byteOffset" : 36104
        },
        {
            "buffer" : 0,
            "byteLength" : 2280,
            "byteOffset" : 41736
        },
        {
            "buffer" : 0,
            "byteLength" : 7080,
            "byteOffset" : 44016
        },
        {
            "buffer" : 0,
            "byteLength" : 7080,
            "byteOffset" : 51096
        },
        {
            "buffer" : 0,
            "byteLength" : 4720,
            "byteOffset" : 58176
        },
        {
            "buffer" : 0,
            "byteLength" : 1896,
            "byteOffset" : 62896
        },
        {
            "buffer" : 0,
            "byteLength" : 54900,
            "byteOffset" : 64792
        },
        {
            "buffer" : 0,
            "byteLength" : 54900,
            "byteOffset" : 119692
        },
        {
            "buffer" : 0,
            "byteLength" : 36600,
            "byteOffset" : 174592
        },
        {
            "buffer" : 0,
            "byteLength" : 47616,
            "byteOffset" : 211192
        },
        {
            "buffer" : 0,
            "byteLength" : 9264,
            "byteOffset" : 258808
        },
        {
            "buffer" : 0,
            "byteLength" : 9264,
            "byteOffset" : 268072
        },
        {
            "buffer" : 0,
            "byteLength" : 6176,
            "byteOffset" : 277336
        },
        {
            "buffer" : 0,
            "byteLength" : 3288,
            "byteOffset" : 283512
        },
        {
            "buffer" : 0,
            "byteLength" : 38472,
            "byteOffset" : 286800
        },
        {
            "buffer" : 0,
            "byteLength" : 38472,
            "byteOffset" : 325272
        },
        {
            "buffer" : 0,
            "byteLength" : 25648,
            "byteOffset" : 363744
        },
        {
            "buffer" : 0,
            "byteLength" : 12276,
            "byteOffset" : 389392
        },
        {
            "buffer" : 0,
            "byteLength" : 1179648,
            "byteOffset" : 401668
        },
        {
            "buffer" : 0,
            "byteLength" : 1179648,
            "byteOffset" : 1581316
        },
        {
            "buffer" : 0,
            "byteLength" : 786432,
            "byteOffset" : 2760964
        },
        {
            "buffer" : 0,
            "byteLength" : 589824,
            "byteOffset" : 3547396
        },
        {
            "buffer" : 0,
            "byteLength" : 4,
            "byteOffset" : 4137220
        },
        {
            "buffer" : 0,
            "byteLength" : 16,
            "byteOffset" : 4137224
        }
    ],
    "samplers" : [
        {
            "magFilter" : 9729,
            "minFilter" : 9987
        }
    ],
    "buffers" : [
        {
            "byteLength" : 4137240,
            "uri" : "bb-8-model.bin"
        }
    ]
}
